<?xml version="1.0" ?>
<!-- Uploaded to: SVG Repo, www.svgrepo.com, Generator: SVG Repo Mixer Tools -->
<svg width="800px" height="800px" viewBox="0 0 512 512" id="Layer_1" version="1.1" xml:space="preserve" xmlns="http://www.w3.org/2000/svg" xmlns:xlink="http://www.w3.org/1999/xlink">
<style type="text/css">
	.st0{fill:#333333;}
</style>
<g>
<path class="st0" d="M443.7,96.9H229.4c-2-38.7-34.2-69.6-73.4-69.6c-10.5,0-20.7,2.2-30.2,6.5c-25.1,11.3-41.7,35.8-43.2,63.1   H68.3c-17.6,0-31.9,14.3-31.9,31.9v197.7v52.9c0,17.6,14.3,31.9,31.9,31.9h157.1l-8.9,59.3h-15.1c-3.9,0-7,3.1-7,7s3.1,7,7,7h21.2   h67h21.2c3.9,0,7-3.1,7-7s-3.1-7-7-7h-15.1l-8.9-59.3h157.1c17.6,0,31.9-14.3,31.9-31.9V139.8v-11   C475.6,111.3,461.3,96.9,443.7,96.9z M131.5,46.6c7.7-3.5,15.9-5.2,24.5-5.2c32.8,0,59.5,26.7,59.5,59.5c0,1,0,1.9-0.1,2.8   c-1.4,31.8-27.6,56.7-59.4,56.7c-31.9,0-58-24.9-59.4-56.7c0-0.1,0-0.1,0-0.2c0-0.2,0-0.4,0-0.6c0-0.7,0-1.3,0-2   C96.5,77.5,110.2,56.2,131.5,46.6z M68.3,110.9h14.9c0,0.1,0,0.2,0.1,0.3c0.1,0.5,0.2,1,0.2,1.5c0.1,0.6,0.2,1.3,0.3,1.9   c0.1,0.5,0.2,1,0.3,1.5c0.1,0.6,0.3,1.2,0.4,1.9c0.1,0.5,0.3,1,0.4,1.5c0.2,0.6,0.3,1.2,0.5,1.8c0.1,0.5,0.3,1,0.5,1.5   c0.2,0.6,0.4,1.2,0.6,1.8c0.2,0.5,0.3,1,0.5,1.5c0.2,0.6,0.4,1.2,0.7,1.7c0.2,0.5,0.4,1,0.6,1.4c0.2,0.6,0.5,1.1,0.7,1.7   c0.2,0.5,0.4,0.9,0.6,1.4c0.3,0.6,0.5,1.1,0.8,1.7c0.2,0.4,0.5,0.9,0.7,1.3c0.3,0.6,0.6,1.1,0.9,1.6c0.2,0.4,0.5,0.9,0.7,1.3   c0.3,0.5,0.7,1.1,1,1.6c0.3,0.4,0.5,0.8,0.8,1.2c0.4,0.5,0.7,1.1,1.1,1.6c0.3,0.4,0.5,0.8,0.8,1.1c0.4,0.6,0.8,1.1,1.2,1.6   c0.3,0.3,0.5,0.7,0.8,1c0.5,0.6,0.9,1.2,1.4,1.7c0.2,0.3,0.5,0.6,0.7,0.8c0.6,0.7,1.3,1.4,2,2.1c0.1,0.1,0.2,0.2,0.3,0.3   c0.8,0.8,1.6,1.6,2.4,2.4c0.2,0.2,0.4,0.3,0.5,0.5c0.6,0.6,1.3,1.2,1.9,1.8c0.3,0.3,0.6,0.5,0.9,0.7c0.6,0.5,1.1,0.9,1.7,1.4   c0.3,0.3,0.7,0.5,1,0.8c0.5,0.4,1.1,0.8,1.6,1.2c0.4,0.3,0.8,0.5,1.1,0.8c0.5,0.4,1.1,0.7,1.6,1.1c0.4,0.3,0.8,0.5,1.2,0.8   c0.5,0.3,1.1,0.7,1.6,1c0.4,0.3,0.8,0.5,1.3,0.7c0.5,0.3,1.1,0.6,1.6,0.9c0.4,0.2,0.9,0.5,1.3,0.7c0.6,0.3,1.1,0.6,1.7,0.8   c0.5,0.2,0.9,0.4,1.4,0.6c0.6,0.3,1.1,0.5,1.7,0.7c0.5,0.2,0.9,0.4,1.4,0.6c0.6,0.2,1.2,0.4,1.7,0.7c0.5,0.2,1,0.3,1.4,0.5   c0.6,0.2,1.2,0.4,1.8,0.6c0.5,0.2,1,0.3,1.5,0.4c0.6,0.2,1.2,0.3,1.8,0.5c0.5,0.1,1,0.3,1.5,0.4c0.6,0.2,1.3,0.3,1.9,0.4   c0.5,0.1,1,0.2,1.5,0.3c0.7,0.1,1.3,0.2,2,0.3c0.5,0.1,1,0.2,1.5,0.2c0.7,0.1,1.4,0.2,2.1,0.3c0.5,0.1,0.9,0.1,1.4,0.2   c0.8,0.1,1.6,0.1,2.4,0.2c0.4,0,0.8,0.1,1.2,0.1c1.2,0.1,2.4,0.1,3.6,0.1c1.2,0,2.4,0,3.6-0.1c0.4,0,0.8-0.1,1.2-0.1   c0.8,0,1.6-0.1,2.3-0.2c0.5,0,0.9-0.1,1.4-0.2c0.7-0.1,1.4-0.2,2.1-0.3c0.5-0.1,1-0.2,1.5-0.2c0.7-0.1,1.3-0.2,2-0.3   c0.5-0.1,1-0.2,1.5-0.3c0.6-0.1,1.2-0.3,1.9-0.4c0.5-0.1,1-0.3,1.5-0.4c0.6-0.2,1.2-0.3,1.8-0.5c0.5-0.1,1-0.3,1.5-0.5   c0.6-0.2,1.1-0.4,1.7-0.6c0.5-0.2,1-0.4,1.5-0.5c0.6-0.2,1.1-0.4,1.7-0.6c0.5-0.2,1-0.4,1.5-0.6c0.5-0.2,1.1-0.5,1.6-0.7   c0.5-0.2,1-0.5,1.5-0.7c0.5-0.2,1-0.5,1.5-0.7c0.5-0.3,1-0.5,1.5-0.8c0.5-0.3,1-0.5,1.4-0.8c0.5-0.3,1-0.6,1.5-0.9   c0.5-0.3,0.9-0.5,1.3-0.8c0.5-0.3,1-0.6,1.5-1c0.4-0.3,0.8-0.6,1.2-0.8c0.5-0.4,1-0.7,1.5-1.1c0.4-0.3,0.7-0.5,1.1-0.8   c0.5-0.4,1.1-0.8,1.6-1.2c0.3-0.2,0.6-0.5,0.9-0.7c0.6-0.5,1.1-0.9,1.7-1.4c0.1-0.1,0.2-0.2,0.3-0.3c3-2.7,5.8-5.6,8.3-8.7   c0.1-0.1,0.2-0.3,0.3-0.4c0.5-0.7,1.1-1.4,1.6-2c0.1-0.2,0.3-0.4,0.4-0.6c0.5-0.7,1-1.3,1.4-2c0.2-0.2,0.3-0.5,0.5-0.7   c0.4-0.7,0.9-1.4,1.3-2c0.2-0.3,0.3-0.5,0.5-0.8c0.4-0.7,0.8-1.4,1.2-2.1c0.2-0.3,0.3-0.5,0.5-0.8c0.4-0.7,0.7-1.4,1.1-2.1   c0.1-0.3,0.3-0.6,0.4-0.9c0.3-0.7,0.7-1.4,1-2.1c0.1-0.3,0.3-0.6,0.4-0.9c0.3-0.7,0.6-1.4,0.9-2.2c0.1-0.3,0.2-0.6,0.4-1   c0.3-0.7,0.5-1.5,0.8-2.2c0.1-0.3,0.2-0.7,0.3-1c0.2-0.7,0.5-1.5,0.7-2.2c0.1-0.4,0.2-0.7,0.3-1.1c0.2-0.7,0.4-1.5,0.6-2.2   c0.1-0.4,0.2-0.8,0.3-1.2c0.2-0.7,0.3-1.4,0.5-2.2c0.1-0.4,0.1-0.9,0.2-1.3c0.1-0.7,0.2-1.4,0.3-2.1c0-0.1,0-0.1,0-0.2h214.9   c9.9,0,17.9,8,17.9,17.9v8.1l-77,77L354,183.2c-2.7-2.7-7.2-2.7-9.9,0l-90.9,90.9l-37.9-37.9c-2.7-2.7-7.2-2.7-9.9,0l-53.9,53.9   l-35.4-28.1c-2.6-2.1-6.4-2-8.9,0.2l-56.9,49.2V128.9C50.4,119,58.4,110.9,68.3,110.9z M281.4,470.7h-50.7l8.9-59.3h32.9   L281.4,470.7z M461.6,379.4c0,9.9-8,17.9-17.9,17.9H278.5h-44.9H68.3c-9.9,0-17.9-8-17.9-17.9v-49.7l61.7-53.3l35.8,28.4   c2.8,2.2,6.8,2,9.3-0.5l53.3-53.3l37.9,37.9c2.7,2.7,7.2,2.7,9.9,0l90.9-90.9l30.7,30.7c1.3,1.3,3.1,2,4.9,2s3.6-0.7,4.9-2l72-72   V379.4z"/>
<path class="st0" d="M130.4,127.6c6.5,4.6,13.9,7.5,22,8.4v6.6c0,2.6,2.1,4.6,4.7,4.6c2.6,0,4.6-2,4.6-4.6v-6.4   c13.6-1.3,22.8-9.1,22.8-20.9c0-11.5-7-18-23.2-22.1V72.7c3.6,0.9,7.3,2.5,11,4.7c1.1,0.6,2.1,1,3.2,1c3.3,0,6-2.6,6-5.9   c0-2.6-1.5-4.2-3.2-5.1c-4.9-3.1-10.3-5.1-16.6-5.9v-2.4c0-2.6-2-4.6-4.6-4.6c-2.6,0-4.7,2-4.7,4.6v2.2c-13.4,1.1-22.5,9-22.5,20.5   c0,12.1,7.3,18,22.9,22.1v21.1c-5.9-1.1-10.8-3.5-15.8-7.2c-1-0.7-2.2-1.2-3.5-1.2c-3.3,0-5.9,2.6-5.9,5.9   C127.5,124.7,128.6,126.4,130.4,127.6z M161.2,105.9c8.2,2.6,10.6,5.5,10.6,10.2c0,5.1-3.7,8.6-10.6,9.3V105.9z M142.5,81   c0-4.7,3.4-8.4,10.3-9v19C144.5,88.3,142.5,85.5,142.5,81z"/>
</g>
</svg>