<?xml version="1.0" ?>
<!-- Uploaded to: SVG Repo, www.svgrepo.com, Generator: SVG Repo Mixer Tools -->
<svg width="800px" height="800px" viewBox="0 0 512 512" id="Layer_1" version="1.1" xml:space="preserve" xmlns="http://www.w3.org/2000/svg" xmlns:xlink="http://www.w3.org/1999/xlink">
<style type="text/css">
	.st0{fill:#333333;}
</style>
<g>
<path class="st0" d="M419.2,75.9H302.6C301.9,54.1,284,36.6,262,36.6H64.7c-0.9,0-1.9,0-2.9,0.1c0,0,0,0,0,0c0,0,0,0,0,0   C46.5,38.2,35,50.9,35,66.3v95.7c0,3.9,3.1,7,7,7h57.3v148.4c0,18.8,15.3,34.1,34.1,34.1h14.1H270v89.5c0,3.9,3.1,7,7,7h47.2   c11.2,17,30.4,27.4,50.9,27.4c17.4,0,34.1-7.5,45.6-20.6c1.9-2.2,3.7-4.5,5.3-6.9h44c3.9,0,7-3.1,7-7V133.8   C477,101.9,451.1,75.9,419.2,75.9z M49,154.9V66.3c0-7.2,4.7-13.2,11.4-15.1c0.8,0.7,1.6,1.4,2.3,2.1c0.1,0.1,0.3,0.3,0.4,0.4   c0.6,0.6,1.2,1.2,1.8,1.8c0.3,0.3,0.5,0.5,0.8,0.8c0.5,0.5,1,1,1.4,1.5c0.3,0.3,0.6,0.6,0.9,0.9c0.4,0.5,0.8,0.9,1.3,1.4   c0.3,0.3,0.6,0.7,0.9,1c0.4,0.4,0.8,0.9,1.2,1.3c0.3,0.4,0.6,0.7,0.9,1.1c0.4,0.4,0.7,0.9,1.1,1.3c0.3,0.4,0.6,0.8,0.9,1.1   c0.3,0.4,0.7,0.9,1,1.3c0.3,0.4,0.6,0.8,0.9,1.2c0.3,0.4,0.7,0.9,1,1.3c0.3,0.4,0.6,0.8,0.9,1.2c0.3,0.4,0.6,0.9,0.9,1.3   c0.3,0.4,0.6,0.8,0.8,1.2c0.3,0.4,0.6,0.9,0.9,1.3c0.3,0.4,0.5,0.8,0.8,1.3c0.3,0.5,0.6,0.9,0.8,1.4c0.3,0.4,0.5,0.9,0.8,1.3   c0.3,0.5,0.5,0.9,0.8,1.4c0.3,0.4,0.5,0.9,0.7,1.3c0.3,0.5,0.5,0.9,0.8,1.4c0.2,0.4,0.5,0.9,0.7,1.3c0.2,0.5,0.5,0.9,0.7,1.4   c0.2,0.4,0.5,0.9,0.7,1.4c0.2,0.5,0.5,0.9,0.7,1.4c0.2,0.5,0.4,0.9,0.6,1.4c0.2,0.5,0.4,1,0.6,1.4c0.2,0.5,0.4,0.9,0.6,1.4   c0.2,0.5,0.4,1,0.6,1.5c0.2,0.5,0.4,0.9,0.6,1.4c0.2,0.5,0.4,1,0.6,1.5c0.2,0.5,0.4,0.9,0.5,1.4c0.2,0.5,0.4,1,0.5,1.5   c0.2,0.5,0.3,0.9,0.5,1.4c0.2,0.5,0.3,1,0.5,1.5c0.2,0.5,0.3,1,0.4,1.4c0.2,0.5,0.3,1,0.5,1.5c0.1,0.5,0.3,1,0.4,1.4   c0.1,0.5,0.3,1,0.4,1.6c0.1,0.5,0.3,1,0.4,1.4c0.1,0.5,0.3,1.1,0.4,1.6c0.1,0.5,0.2,1,0.3,1.4c0.1,0.5,0.2,1.1,0.3,1.6   c0.1,0.5,0.2,1,0.3,1.4c0.1,0.5,0.2,1.1,0.3,1.6c0.1,0.5,0.2,1,0.2,1.4c0.1,0.6,0.2,1.1,0.3,1.7c0.1,0.5,0.1,0.9,0.2,1.4   c0.1,0.6,0.1,1.1,0.2,1.7c0.1,0.5,0.1,0.9,0.2,1.4c0.1,0.6,0.1,1.2,0.2,1.8c0,0.4,0.1,0.9,0.1,1.3c0.1,0.6,0.1,1.2,0.1,1.9   c0,0.4,0.1,0.8,0.1,1.3c0,0.7,0.1,1.4,0.1,2.1c0,0.4,0,0.7,0,1.1c0,1.1,0,2.1,0,3.2v16.8H49z M113.3,317.4V161.9v-23.8   c0-1.1,0-2.2,0-3.4c0-0.4,0-0.7,0-1.1c0-0.8-0.1-1.5-0.1-2.3c0-0.4,0-0.8-0.1-1.2c0-0.7-0.1-1.4-0.1-2.1c0-0.4-0.1-0.8-0.1-1.3   c-0.1-0.7-0.1-1.4-0.2-2.2c0-0.4-0.1-0.8-0.1-1.2c-0.1-0.8-0.2-1.7-0.3-2.5c0-0.3-0.1-0.5-0.1-0.8c-0.2-1.1-0.3-2.2-0.5-3.3   c0-0.3-0.1-0.5-0.1-0.8c-0.1-0.8-0.3-1.7-0.4-2.5c-0.1-0.4-0.2-0.8-0.2-1.1c-0.1-0.7-0.3-1.4-0.4-2.1c-0.1-0.4-0.2-0.8-0.3-1.2   c-0.2-0.7-0.3-1.4-0.5-2.1c-0.1-0.4-0.2-0.8-0.3-1.2c-0.2-0.7-0.4-1.5-0.6-2.2c-0.1-0.3-0.2-0.7-0.3-1c-0.6-2.1-1.2-4.2-1.9-6.3   c-0.1-0.3-0.2-0.6-0.3-1c-0.2-0.7-0.5-1.4-0.8-2.1c-0.1-0.4-0.3-0.8-0.4-1.1c-0.2-0.7-0.5-1.3-0.8-2c-0.2-0.4-0.3-0.8-0.5-1.1   c-0.3-0.7-0.6-1.3-0.8-2c-0.1-0.3-0.3-0.7-0.4-1c-0.3-0.8-0.7-1.5-1-2.3c-0.1-0.2-0.2-0.5-0.3-0.7c-0.5-1-0.9-2-1.4-3   c-0.1-0.2-0.2-0.4-0.3-0.7c-0.4-0.8-0.8-1.5-1.2-2.2c-0.2-0.3-0.4-0.7-0.5-1c-0.3-0.6-0.7-1.3-1-1.9c-0.2-0.4-0.4-0.7-0.6-1.1   c-0.3-0.6-0.7-1.2-1.1-1.8c-0.2-0.3-0.4-0.7-0.6-1c-0.4-0.6-0.8-1.3-1.2-1.9c-0.2-0.3-0.4-0.6-0.6-0.9c-0.6-0.9-1.2-1.8-1.8-2.7   c0,0,0,0,0,0c-0.6-0.9-1.2-1.8-1.9-2.7c-0.2-0.3-0.4-0.6-0.6-0.9c-0.4-0.6-0.9-1.2-1.3-1.8c-0.3-0.3-0.5-0.7-0.8-1   c-0.4-0.5-0.8-1.1-1.3-1.6c-0.3-0.3-0.5-0.7-0.8-1c-0.4-0.5-0.9-1.1-1.3-1.6c-0.3-0.3-0.5-0.6-0.8-1c-0.5-0.6-1-1.2-1.6-1.8   c-0.2-0.2-0.4-0.5-0.6-0.7c0,0-0.1-0.1-0.1-0.1H262c14.3,0,25.9,11.2,26.6,25.3h-52.3h0h-7.8c-28.4,0-51.5,23.1-51.5,51.5v134.8   c0,14.6-3,28.8-8.9,42.1c-0.7,1.5-1.4,3-2.1,4.4c-0.1,0.1-0.1,0.2-0.2,0.3c-0.7,1.4-1.4,2.7-2.2,4.1c-0.1,0.2-0.2,0.3-0.3,0.5   c-0.7,1.3-1.5,2.6-2.3,3.8c-0.1,0.2-0.2,0.4-0.4,0.6c-0.8,1.2-1.6,2.5-2.5,3.7c-0.1,0.2-0.3,0.4-0.4,0.6c-0.9,1.2-1.7,2.4-2.6,3.5   c-0.1,0.2-0.3,0.4-0.4,0.5c-0.9,1.2-1.9,2.3-2.8,3.4c-0.1,0.2-0.3,0.3-0.4,0.5c-1,1.2-2,2.3-3.1,3.4c-0.1,0.1-0.2,0.2-0.3,0.3   c-1.1,1.2-2.2,2.3-3.4,3.4c0,0,0,0,0,0h-11.3C122.3,337.4,113.3,328.4,113.3,317.4z M270,337.4H163.9c0.1-0.2,0.2-0.3,0.4-0.5   c0.6-0.7,1.2-1.4,1.7-2.2c0.2-0.2,0.4-0.5,0.6-0.7c0.7-1,1.5-1.9,2.2-2.9c0.1-0.2,0.3-0.4,0.4-0.6c0.6-0.8,1.1-1.6,1.7-2.4   c0.2-0.3,0.4-0.6,0.6-1c0.5-0.7,1-1.5,1.5-2.3c0.2-0.3,0.4-0.6,0.6-0.9c0.6-1,1.3-2.1,1.9-3.1c0.1-0.1,0.2-0.3,0.2-0.4   c0.5-0.9,1-1.8,1.5-2.8c0.2-0.3,0.4-0.7,0.5-1c0.4-0.8,0.8-1.6,1.2-2.3c0.2-0.3,0.3-0.7,0.5-1c0.5-1.1,1-2.2,1.5-3.3   c6.7-15.1,10.1-31.2,10.1-47.8V127.4c0-20.7,16.8-37.5,37.5-37.5h5.3c0,0,0.1,0.1,0.1,0.1c0.4,0.4,0.9,0.8,1.3,1.1   c0.3,0.3,0.6,0.5,0.9,0.8c0.4,0.4,0.8,0.8,1.2,1.1c0.3,0.3,0.6,0.5,0.9,0.8c0.4,0.4,0.8,0.8,1.2,1.2c0.3,0.3,0.6,0.6,0.9,0.9   c0.4,0.4,0.8,0.8,1.1,1.2c0.3,0.3,0.6,0.6,0.8,0.9c0.4,0.4,0.7,0.8,1.1,1.2c0.3,0.3,0.6,0.6,0.8,0.9c0.4,0.4,0.7,0.8,1,1.2   c0.3,0.3,0.5,0.6,0.8,0.9c0.3,0.4,0.7,0.8,1,1.2c0.3,0.3,0.5,0.6,0.8,1c0.3,0.4,0.6,0.8,1,1.3c0.3,0.3,0.5,0.7,0.8,1   c0.3,0.4,0.6,0.8,0.9,1.3c0.2,0.3,0.5,0.7,0.7,1c0.3,0.4,0.6,0.9,0.9,1.3c0.2,0.3,0.5,0.7,0.7,1c0.3,0.4,0.6,0.9,0.9,1.3   c0.2,0.3,0.4,0.7,0.7,1c0.3,0.4,0.6,0.9,0.8,1.3c0.2,0.3,0.4,0.7,0.6,1.1c0.3,0.5,0.5,0.9,0.8,1.4c0.2,0.4,0.4,0.7,0.6,1.1   c0.3,0.5,0.5,0.9,0.8,1.4c0.2,0.4,0.4,0.7,0.6,1.1c0.2,0.5,0.5,0.9,0.7,1.4c0.2,0.4,0.4,0.7,0.5,1.1c0.2,0.5,0.5,1,0.7,1.4   c0.2,0.4,0.3,0.7,0.5,1.1c0.2,0.5,0.4,1,0.7,1.5c0.2,0.4,0.3,0.7,0.5,1.1c0.2,0.5,0.4,1,0.6,1.5c0.1,0.4,0.3,0.7,0.4,1.1   c0.2,0.5,0.4,1,0.6,1.5c0.1,0.4,0.3,0.7,0.4,1.1c0.2,0.5,0.4,1,0.5,1.5c0.1,0.4,0.2,0.7,0.4,1.1c0.2,0.5,0.3,1,0.5,1.6   c0.1,0.4,0.2,0.7,0.3,1.1c0.2,0.5,0.3,1.1,0.5,1.6c0.1,0.4,0.2,0.7,0.3,1.1c0.1,0.5,0.3,1.1,0.4,1.6c0.1,0.4,0.2,0.7,0.3,1.1   c0.1,0.6,0.3,1.1,0.4,1.7c0.1,0.4,0.1,0.7,0.2,1.1c0.1,0.6,0.2,1.1,0.4,1.7c0.1,0.3,0.1,0.7,0.2,1c0.1,0.6,0.2,1.2,0.3,1.8   c0.1,0.3,0.1,0.7,0.2,1c0.1,0.6,0.2,1.2,0.3,1.8c0,0.3,0.1,0.6,0.1,0.9c0.1,0.6,0.2,1.3,0.2,1.9c0,0.3,0.1,0.5,0.1,0.8   c0.1,0.7,0.1,1.4,0.2,2.1c0,0.2,0,0.4,0,0.6c0.1,0.8,0.1,1.5,0.2,2.3c0,0,0,0.1,0,0.1c0.1,1.9,0.1,3.7,0.1,5.6V337.4z M375.1,461.4   c-16.9,0-32.6-9.2-40.9-23.9c-3.7-6.5-5.8-14-6-21.5c0,0,0-0.1,0-0.1c0-0.5,0-0.9,0-1.4c0-18.4,10.9-35.2,27.6-42.8   c6.1-2.7,12.6-4.1,19.3-4.1c13.4,0,26.3,5.8,35.2,15.9c7.6,8.6,11.8,19.6,11.8,31.1c0,2-0.1,4-0.4,6c-0.6,5-2.1,9.8-4.3,14.4   c-0.4,0.9-0.9,1.8-1.4,2.7c-1.6,2.9-3.5,5.6-5.7,8C401.4,455.6,388.6,461.4,375.1,461.4z M463,433.9h-30.1c0,0,0-0.1,0-0.1   c0.2-0.7,0.5-1.4,0.7-2.1c0-0.2,0.1-0.3,0.1-0.5c0.2-0.6,0.3-1.1,0.5-1.7c0.1-0.2,0.1-0.5,0.2-0.7c0.1-0.5,0.2-1,0.3-1.5   c0.1-0.2,0.1-0.5,0.2-0.7c0.1-0.6,0.2-1.2,0.3-1.8c0-0.1,0-0.3,0.1-0.4c0.1-0.7,0.2-1.5,0.3-2.2c0-0.2,0-0.4,0.1-0.6   c0.1-0.5,0.1-1.1,0.2-1.6c0-0.3,0-0.5,0.1-0.8c0-0.5,0.1-1.1,0.1-1.6c0-0.2,0-0.5,0-0.7c0-0.8,0-1.5,0-2.3   c0-14.9-5.4-29.2-15.3-40.4c-11.6-13.1-28.2-20.6-45.7-20.6c-8.7,0-17.1,1.8-25.1,5.4c-21.8,9.8-35.9,31.7-35.9,55.6   c0,0.7,0,1.4,0,2.1c0,1.1,0.1,2.2,0.2,3.3c0,0.2,0,0.4,0.1,0.6c0.1,1.1,0.2,2.1,0.4,3.2c0,0.2,0.1,0.4,0.1,0.6   c0.2,1,0.4,2.1,0.6,3.1c0,0.1,0,0.1,0,0.2c0.2,1.1,0.5,2.1,0.8,3.1c0.1,0.2,0.1,0.4,0.2,0.6c0.3,0.9,0.5,1.8,0.8,2.7H284V168.9   c0-1.1,0-2.1,0-3.2c0-0.2,0-0.4,0-0.6c0-0.8-0.1-1.7-0.1-2.5c0-0.3,0-0.6,0-0.8c0-0.8-0.1-1.5-0.2-2.3c0-0.3,0-0.5-0.1-0.8   c-0.1-0.8-0.2-1.7-0.2-2.5c0-0.2,0-0.4-0.1-0.5c-0.2-2.1-0.5-4.1-0.9-6.2c0-0.2-0.1-0.4-0.1-0.7c-0.1-0.8-0.3-1.6-0.4-2.4   c-0.1-0.3-0.1-0.6-0.2-0.8c-0.1-0.7-0.3-1.5-0.5-2.2c-0.1-0.3-0.1-0.5-0.2-0.8c-0.2-0.8-0.4-1.7-0.6-2.5c0-0.2-0.1-0.3-0.1-0.5   c-0.5-2-1.1-4-1.7-5.9c-0.1-0.2-0.1-0.5-0.2-0.7c-0.2-0.7-0.5-1.5-0.7-2.2c-0.1-0.3-0.2-0.5-0.3-0.8c-0.2-0.7-0.5-1.4-0.8-2.1   c-0.1-0.3-0.2-0.5-0.3-0.8c-0.3-0.8-0.6-1.6-1-2.4c0-0.1-0.1-0.2-0.1-0.4c-0.4-1-0.8-1.9-1.2-2.9c0-0.1-0.1-0.1-0.1-0.2   c-0.4-0.9-0.8-1.7-1.2-2.6c-0.1-0.2-0.2-0.5-0.3-0.7c-0.3-0.7-0.7-1.4-1-2c-0.1-0.3-0.3-0.5-0.4-0.8c-0.3-0.7-0.7-1.3-1.1-2   c-0.1-0.2-0.2-0.5-0.4-0.7c-0.4-0.8-0.9-1.6-1.3-2.4c0-0.1-0.1-0.2-0.1-0.2c-0.5-0.9-1.1-1.8-1.6-2.7c-0.1-0.1-0.1-0.2-0.2-0.3   c-0.5-0.8-0.9-1.5-1.4-2.3c-0.1-0.2-0.3-0.4-0.4-0.7c-0.4-0.6-0.8-1.3-1.3-1.9c-0.2-0.2-0.3-0.5-0.5-0.7c-0.4-0.6-0.9-1.3-1.3-1.9   c-0.1-0.2-0.3-0.4-0.4-0.6c-0.6-0.8-1.2-1.6-1.8-2.4c0,0,0,0,0,0c-0.6-0.8-1.3-1.7-2-2.5c-0.1-0.1-0.2-0.2-0.3-0.3   c-0.6-0.7-1.1-1.3-1.7-2c-0.2-0.2-0.4-0.4-0.5-0.6c-0.3-0.3-0.6-0.6-0.8-1h41.9h123.5c24.2,0,43.8,19.7,43.8,43.8V433.9z"/>
<path class="st0" d="M418.6,187h-87c-3.9,0-7,3.1-7,7s3.1,7,7,7h87c3.9,0,7-3.1,7-7S422.5,187,418.6,187z"/>
<path class="st0" d="M418.6,243.9h-87c-3.9,0-7,3.1-7,7s3.1,7,7,7h87c3.9,0,7-3.1,7-7S422.5,243.9,418.6,243.9z"/>
<path class="st0" d="M418.6,300.9h-87c-3.9,0-7,3.1-7,7s3.1,7,7,7h87c3.9,0,7-3.1,7-7S422.5,300.9,418.6,300.9z"/>
<path class="st0" d="M379.4,408.3v-16.7c3,0.7,5.9,2,8.9,3.8c0.9,0.5,1.7,0.8,2.6,0.8c2.7,0,4.9-2.1,4.9-4.8c0-2.1-1.2-3.4-2.6-4.2   c-4-2.5-8.3-4.2-13.5-4.8v-1.9c0-2.1-1.6-3.7-3.7-3.7c-2.1,0-3.8,1.7-3.8,3.7v1.8c-10.9,0.9-18.2,7.3-18.2,16.6   c0,9.8,5.9,14.6,18.6,17.9V434c-4.8-0.9-8.8-2.9-12.9-5.8c-0.8-0.6-1.8-1-2.9-1c-2.7,0-4.8,2.1-4.8,4.8c0,1.8,0.9,3.2,2.3,4.2   c5.3,3.7,11.3,6.1,17.8,6.8v5.4c0,2.1,1.7,3.7,3.8,3.7c2.1,0,3.7-1.7,3.7-3.7v-5.2c11-1,18.5-7.4,18.5-16.9   C398.2,416.9,392.6,411.6,379.4,408.3z M372.5,406.4c-6.7-2.2-8.3-4.4-8.3-8.1c0-3.8,2.8-6.8,8.3-7.3V406.4z M379.4,434.3v-15.8   c6.7,2.1,8.6,4.4,8.6,8.3C388,430.9,384.9,433.7,379.4,434.3z"/>
</g>
</svg>