<?xml version="1.0" ?>
<!-- Uploaded to: SVG Repo, www.svgrepo.com, Generator: SVG Repo Mixer Tools -->
<svg width="800px" height="800px" viewBox="0 0 512 512" id="Layer_1" version="1.1" xml:space="preserve" xmlns="http://www.w3.org/2000/svg" xmlns:xlink="http://www.w3.org/1999/xlink">
<style type="text/css">
	.st0{fill:#333333;}
</style>
<g>
<path class="st0" d="M334,352.5c17.1,0,31-13.9,31-31s-13.9-31-31-31s-31,13.9-31,31S316.9,352.5,334,352.5z M334,304.5   c9.4,0,17,7.6,17,17s-7.6,17-17,17s-17-7.6-17-17S324.6,304.5,334,304.5z"/>
<path class="st0" d="M409.7,34.8H102.3c-3.9,0-7,3.1-7,7v124.2c-15.2,1.8-26.9,14.8-26.9,30.4v250c0,16.9,13.8,30.7,30.7,30.7h314   c16.9,0,30.7-13.8,30.7-30.7v-70.6c0,0,0-0.1,0-0.1V267.2c0,0,0-0.1,0-0.1v-70.6c0-15.7-11.8-28.6-26.9-30.4V41.8   C416.7,38,413.6,34.8,409.7,34.8z M109.3,48.8h293.5v117H364c0.2-0.4,0.5-0.7,0.7-1c0.1-0.1,0.1-0.2,0.2-0.3   c0.2-0.3,0.5-0.6,0.8-0.9c0.1-0.1,0.1-0.2,0.2-0.2c0.3-0.3,0.7-0.7,1-1c0.1-0.1,0.2-0.1,0.2-0.2c0.3-0.3,0.6-0.5,0.9-0.7   c0.1-0.1,0.2-0.1,0.3-0.2c0.4-0.3,0.8-0.5,1.2-0.8c0.1,0,0.2-0.1,0.2-0.1c0.3-0.2,0.7-0.4,1-0.6c0.1-0.1,0.2-0.1,0.3-0.2   c0.4-0.2,0.9-0.4,1.3-0.6c0.1,0,0.1,0,0.2-0.1c0.4-0.1,0.8-0.3,1.2-0.4c0.1,0,0.2-0.1,0.4-0.1c0.5-0.1,0.9-0.2,1.4-0.3   c0,0,0.1,0,0.1,0c0.4-0.1,0.9-0.1,1.3-0.2c0.1,0,0.3,0,0.4,0c0.5,0,1-0.1,1.5-0.1h5.9c3.9,0,7-3.1,7-7V97.6c0-3.9-3.1-7-7-7h-5.9   c-6.8,0-13-3.8-16-9.9c-1.3-2.5-1.9-5.2-1.9-8v-5.9c0-3.9-3.1-7-7-7H158c-3.9,0-7,3.1-7,7v5.9c0,6.6-3.6,12.6-9.4,15.8   c-2.7,1.4-5.5,2.2-8.6,2.2h-5.9c-3.9,0-7,3.1-7,7v53.3c0,3.9,3.1,7,7,7h5.9c0.5,0,1,0,1.5,0.1c0.1,0,0.3,0,0.4,0   c0.5,0,0.9,0.1,1.3,0.2c0,0,0.1,0,0.1,0c0.5,0.1,0.9,0.2,1.4,0.3c0.1,0,0.2,0.1,0.4,0.1c0.4,0.1,0.8,0.3,1.2,0.4   c0.1,0,0.1,0,0.2,0.1c0.4,0.2,0.9,0.4,1.3,0.6c0.1,0.1,0.2,0.1,0.3,0.2c0.4,0.2,0.7,0.4,1,0.6c0.1,0,0.2,0.1,0.2,0.1   c0.4,0.2,0.8,0.5,1.2,0.8c0.1,0.1,0.2,0.1,0.3,0.2c0.3,0.2,0.6,0.5,0.9,0.7c0.1,0.1,0.2,0.1,0.2,0.2c0.3,0.3,0.7,0.6,1,1   c0.1,0.1,0.1,0.2,0.2,0.2c0.3,0.3,0.5,0.6,0.8,0.9c0.1,0.1,0.1,0.2,0.2,0.3c0.3,0.3,0.5,0.7,0.7,1h-38.7V48.8z M163.4,165.8   c0-0.1-0.1-0.1-0.1-0.2c-0.2-0.7-0.5-1.4-0.8-2.1c0,0,0-0.1-0.1-0.1c-0.3-0.7-0.6-1.3-0.9-1.9c0-0.1-0.1-0.2-0.1-0.2   c-0.3-0.6-0.7-1.3-1-1.9c-0.1-0.1-0.1-0.2-0.2-0.3c-0.4-0.6-0.8-1.2-1.2-1.8c-0.1-0.1-0.1-0.2-0.2-0.3c-0.9-1.2-1.8-2.3-2.8-3.4   c-0.1-0.1-0.1-0.2-0.2-0.2c-0.5-0.5-1-1-1.5-1.4c-0.1-0.1-0.2-0.2-0.3-0.3c-0.5-0.5-1.1-0.9-1.6-1.3c-0.1-0.1-0.1-0.1-0.2-0.2   c-0.6-0.4-1.1-0.8-1.7-1.2c0,0-0.1-0.1-0.1-0.1c-0.6-0.4-1.2-0.7-1.8-1.1c-0.1-0.1-0.2-0.1-0.3-0.2c-0.6-0.3-1.2-0.6-1.9-0.9   c-0.1-0.1-0.2-0.1-0.3-0.2c-0.7-0.3-1.3-0.6-2-0.8c-0.1,0-0.1,0-0.2-0.1c-0.7-0.2-1.3-0.5-2-0.6c-0.1,0-0.2-0.1-0.3-0.1   c-0.7-0.2-1.4-0.4-2.1-0.5c-0.1,0-0.3-0.1-0.4-0.1c-0.7-0.1-1.4-0.2-2.1-0.3c-0.1,0-0.2,0-0.4,0c-0.8-0.1-1.5-0.1-2.3-0.2v-39.3   c4.9-0.2,9.8-1.5,14.1-3.9c10-5.4,16.3-15.7,16.7-26.9h182c0.2,4.6,1.3,9.1,3.4,13.2c5.3,10.5,15.7,17.2,27.4,17.6v39.3   c-0.8,0-1.5,0.1-2.3,0.2c-0.1,0-0.2,0-0.3,0c-0.7,0.1-1.4,0.2-2.1,0.3c-0.1,0-0.3,0.1-0.4,0.1c-0.7,0.1-1.4,0.3-2.1,0.5   c-0.1,0-0.2,0.1-0.3,0.1c-0.7,0.2-1.4,0.4-2,0.7c0,0-0.1,0-0.1,0c-0.7,0.2-1.4,0.5-2,0.8c-0.1,0-0.2,0.1-0.3,0.1   c-0.6,0.3-1.3,0.6-1.9,0.9c-0.1,0.1-0.2,0.1-0.3,0.2c-0.6,0.3-1.2,0.7-1.9,1.1c0,0-0.1,0.1-0.1,0.1c-0.6,0.4-1.2,0.8-1.7,1.2   c-0.1,0.1-0.1,0.1-0.2,0.2c-0.6,0.4-1.1,0.9-1.6,1.3c-0.1,0.1-0.2,0.2-0.3,0.3c-0.5,0.5-1,0.9-1.5,1.4c-0.1,0.1-0.2,0.2-0.2,0.2   c-0.5,0.5-1,1.1-1.5,1.6c0,0,0,0,0,0c-0.5,0.6-0.9,1.1-1.3,1.7c-0.1,0.1-0.1,0.2-0.2,0.3c-0.4,0.6-0.8,1.1-1.2,1.7   c-0.1,0.1-0.1,0.2-0.2,0.4c-0.4,0.6-0.7,1.2-1,1.8c0,0.1-0.1,0.2-0.1,0.3c-0.3,0.6-0.6,1.2-0.9,1.9c0,0.1-0.1,0.1-0.1,0.2   c-0.3,0.7-0.5,1.3-0.7,2c0,0.1-0.1,0.2-0.1,0.2H163.4z M429.7,368.8H292.4c-3.4,0-6.1-2.7-6.1-6.1v-82.5c0-3.4,2.7-6.1,6.1-6.1   h137.2V368.8z M429.7,196.5v63.7H292.4c-11.1,0-20.1,9-20.1,20.1v82.5c0,11.1,9,20.1,20.1,20.1h137.2v63.7   c0,9.2-7.5,16.7-16.7,16.7H99c-9.2,0-16.7-7.5-16.7-16.7v-250c0-9.2,7.5-16.7,16.7-16.7h3.3h55.5h196.4h55.5h3.3   C422.2,179.8,429.7,187.3,429.7,196.5z"/>
<path class="st0" d="M182.7,103.1c-11.6,0-21.1,9.5-21.1,21.1c0,7.9,4.4,15.1,11.4,18.7c3,1.6,6.3,2.4,9.7,2.4   c7.4,0,14.3-3.9,18.1-10.3c0.1-0.1,0.1-0.2,0.2-0.3c1.8-3.2,2.8-6.8,2.8-10.5C203.9,112.6,194.4,103.1,182.7,103.1z M189,127.5   c0,0.1-0.1,0.1-0.1,0.2c-1.3,2.2-3.6,3.6-6.2,3.6c-1.1,0-2.2-0.3-3.3-0.8c-2.4-1.2-3.8-3.6-3.8-6.3c0-3.9,3.2-7.1,7.1-7.1   s7.1,3.2,7.1,7.1C189.9,125.4,189.6,126.5,189,127.5z"/>
<path class="st0" d="M330.5,103.1c-11.6,0-21.1,9.5-21.1,21.1s9.5,21.1,21.1,21.1s21.1-9.5,21.1-21.1S342.1,103.1,330.5,103.1z    M330.5,131.3c-3.9,0-7.1-3.2-7.1-7.1s3.2-7.1,7.1-7.1s7.1,3.2,7.1,7.1S334.4,131.3,330.5,131.3z"/>
<path class="st0" d="M260.2,118.2v-16.3c2.9,0.7,5.8,2,8.7,3.7c0.9,0.5,1.7,0.8,2.6,0.8c2.6,0,4.8-2,4.8-4.7c0-2-1.2-3.3-2.6-4.1   c-3.9-2.5-8.2-4.1-13.2-4.7v-1.9c0-2-1.6-3.7-3.7-3.7s-3.7,1.6-3.7,3.7v1.8c-10.6,0.9-17.8,7.1-17.8,16.2c0,3.9,1,7,2.9,9.5   c2.9,3.7,7.9,6.1,15.3,8v16.7c-4.7-0.9-8.6-2.8-12.6-5.7c-0.8-0.6-1.8-0.9-2.8-0.9c-2.6,0-4.7,2-4.7,4.7c0,1.8,0.9,3.1,2.3,4.1   c5.2,3.7,11,5.9,17.4,6.6v5.3c0,2,1.7,3.7,3.7,3.7s3.7-1.6,3.7-3.7v-5.1c10.8-1,18.1-7.2,18.1-16.6   C278.6,126.6,273.1,121.4,260.2,118.2z"/>
</g>
</svg>