<?xml version="1.0" ?>
<!-- Uploaded to: SVG Repo, www.svgrepo.com, Generator: SVG Repo Mixer Tools -->
<svg width="800px" height="800px" viewBox="0 0 512 512" id="Layer_1" version="1.1" xml:space="preserve" xmlns="http://www.w3.org/2000/svg" xmlns:xlink="http://www.w3.org/1999/xlink">
<style type="text/css">
	.st0{fill:#333333;}
</style>
<g>
<path class="st0" d="M58.9,238.8h275.6c15.6,0,28.3-12.7,28.3-28.3v-16.8v-38.2V75.2c0-15.6-12.7-28.3-28.3-28.3H58.9   c-15.6,0-28.3,12.7-28.3,28.3v80.3v38.2v16.8C30.6,226.1,43.3,238.8,58.9,238.8z M334.5,224.8H58.9c-7.9,0-14.3-6.4-14.3-14.3v-9.8   h304.3v9.8C348.9,218.4,342.4,224.8,334.5,224.8z M44.6,162.5h304.3v24.2H44.6V162.5z M58.9,60.9h275.6c7.9,0,14.3,6.4,14.3,14.3   v73.3H44.6V75.2C44.6,67.3,51,60.9,58.9,60.9z"/>
<path class="st0" d="M96.2,127.1c4.8,0,9.5-1.3,13.6-3.6c4.1,2.4,8.8,3.6,13.6,3.6c15,0,27.3-12.2,27.3-27.3   c0-15-12.2-27.3-27.3-27.3c-4.8,0-9.5,1.3-13.6,3.6c-4.1-2.4-8.8-3.6-13.6-3.6c-15,0-27.3,12.2-27.3,27.3   C68.9,114.9,81.1,127.1,96.2,127.1z M96.2,86.6c3.3,0,6.4,1.2,8.9,3.4c2.7,2.4,6.7,2.4,9.4,0c2.4-2.2,5.6-3.4,8.9-3.4   c7.3,0,13.3,5.9,13.3,13.3s-5.9,13.3-13.3,13.3c-3.3,0-6.4-1.2-8.9-3.4c-1.3-1.2-3-1.8-4.7-1.8c-1.7,0-3.4,0.6-4.7,1.8   c-2.4,2.2-5.6,3.4-8.9,3.4c-7.3,0-13.3-5.9-13.3-13.3S88.8,86.6,96.2,86.6z"/>
<path class="st0" d="M198.8,106.8h20.8c3.9,0,7-3.1,7-7s-3.1-7-7-7h-20.8c-3.9,0-7,3.1-7,7S194.9,106.8,198.8,106.8z"/>
<path class="st0" d="M246.9,106.8h20.8c3.9,0,7-3.1,7-7s-3.1-7-7-7h-20.8c-3.9,0-7,3.1-7,7S243.1,106.8,246.9,106.8z"/>
<path class="st0" d="M295.1,106.8h20.8c3.9,0,7-3.1,7-7s-3.1-7-7-7h-20.8c-3.9,0-7,3.1-7,7S291.2,106.8,295.1,106.8z"/>
<path class="st0" d="M484.8,283.2H171.3c-3.9,0-7,3.1-7,7v167.9c0,3.9,3.1,7,7,7h313.4c3.9,0,7-3.1,7-7V290.2   C491.8,286.3,488.6,283.2,484.8,283.2z M477.8,451.1H178.3V297.2h299.4V451.1z"/>
<path class="st0" d="M203.5,406.9h5.7c9.4,0,17.1,7.7,17.1,17.1v5.7c0,3.9,3.1,7,7,7h189.6c3.9,0,7-3.1,7-7V424   c0-9.4,7.7-17.1,17.1-17.1h5.7c3.9,0,7-3.1,7-7v-51.5c0-3.9-3.1-7-7-7H447c-6.5,0-12.4-3.6-15.3-9.5c-1.2-2.4-1.8-5-1.8-7.6v-5.7   c0-3.9-3.1-7-7-7H233.3c-3.9,0-7,3.1-7,7v5.7c0,6.3-3.4,12-9,15c-2.5,1.4-5.3,2.1-8.2,2.1h-5.7c-3.9,0-7,3.1-7,7v51.5   C196.5,403.8,199.6,406.9,203.5,406.9z M210.5,355.4c4.7-0.2,9.4-1.5,13.5-3.7c9.6-5.3,15.8-15.1,16.2-26h175.6   c0.2,4.4,1.3,8.7,3.3,12.6c5.1,10.2,15.2,16.7,26.5,17.2v37.6c-16.1,0.7-29.1,13.7-29.8,29.8H240.2c-0.7-16.1-13.7-29.1-29.8-29.8   V355.4z"/>
<path class="st0" d="M247.7,392.5c2.9,1.5,6.2,2.3,9.5,2.3c7.3,0,14-3.8,17.7-10.1c0.1-0.1,0.1-0.2,0.2-0.3   c1.8-3.1,2.8-6.7,2.8-10.3c0-11.4-9.3-20.7-20.7-20.7s-20.7,9.3-20.7,20.7C236.5,381.9,240.8,388.9,247.7,392.5z M257.2,367.5   c3.7,0,6.7,3,6.7,6.7c0,1.1-0.3,2.2-0.8,3.1c0,0.1-0.1,0.1-0.1,0.2c-1.2,2.1-3.4,3.3-5.8,3.3c-1.1,0-2.1-0.2-3.1-0.8   c-2.2-1.1-3.6-3.4-3.6-5.9C250.5,370.5,253.5,367.5,257.2,367.5z"/>
<path class="st0" d="M404,395.5c11.8,0,21.4-9.6,21.4-21.4c0-11.8-9.6-21.4-21.4-21.4s-21.4,9.6-21.4,21.4   C382.6,385.9,392.2,395.5,404,395.5z M404,366.8c4.1,0,7.4,3.3,7.4,7.4c0,4.1-3.3,7.4-7.4,7.4s-7.4-3.3-7.4-7.4   C396.6,370.1,399.9,366.8,404,366.8z"/>
<path class="st0" d="M307.4,395.8c5.3,3.7,11.3,6.1,17.8,6.8v5.4c0,2.1,1.7,3.7,3.8,3.7s3.7-1.6,3.7-3.7v-5.2   c11-1,18.4-7.4,18.4-16.9c0-9.3-5.6-14.6-18.8-17.8v-16.6c2.9,0.7,5.9,2,8.9,3.8c0.9,0.5,1.7,0.8,2.6,0.8c2.7,0,4.9-2.1,4.9-4.8   c0-2.1-1.2-3.4-2.6-4.2c-4-2.5-8.3-4.2-13.4-4.8v-1.9c0-2.1-1.7-3.7-3.7-3.7s-3.8,1.6-3.8,3.7v1.8c-10.8,0.9-18.2,7.3-18.2,16.5   c0,4,1,7.1,3,9.7c2.9,3.7,8,6.2,15.6,8.2v17.1c-4.8-0.9-8.7-2.9-12.8-5.8c-0.8-0.6-1.8-0.9-2.9-0.9c-2.7,0-4.8,2.1-4.8,4.8   C305,393.5,305.9,394.8,307.4,395.8z M332.3,378.2c6.7,2.1,8.6,4.4,8.6,8.2c0,4.2-3,6.9-8.6,7.5V378.2z M322,364.8   C322,364.8,322,364.8,322,364.8c-3.8-1.8-4.9-3.8-4.9-6.7c0-3.8,2.8-6.7,8.3-7.3v15.3C324.1,365.7,323,365.3,322,364.8z"/>
<path class="st0" d="M416.8,131.1c21.3,0,38.7,17.3,38.7,38.7v45.8l-10.5-9.9c-2.8-2.6-7.2-2.5-9.9,0.3c-2.6,2.8-2.5,7.2,0.3,9.9   l22.3,21c0,0,0.1,0.1,0.1,0.1c0.1,0.1,0.1,0.1,0.2,0.1c0,0,0.1,0.1,0.1,0.1c0.1,0.1,0.2,0.1,0.2,0.2c0.1,0,0.1,0.1,0.2,0.1   c0,0,0.1,0.1,0.1,0.1c0.1,0.1,0.2,0.1,0.3,0.2c0.1,0,0.1,0.1,0.2,0.1c0,0,0.1,0,0.1,0.1c0.1,0.1,0.2,0.1,0.3,0.2c0,0,0.1,0,0.1,0   c0,0,0.1,0,0.1,0c0,0,0.1,0,0.1,0c0.1,0,0.2,0.1,0.3,0.1c0.1,0,0.1,0.1,0.2,0.1c0,0,0,0,0,0c0,0,0,0,0.1,0c0.1,0,0.2,0.1,0.4,0.1   c0.1,0,0.2,0,0.3,0.1c0,0,0,0,0,0c0.1,0,0.3,0,0.4,0.1c0.1,0,0.2,0,0.2,0c0,0,0,0,0,0c0.2,0,0.4,0,0.7,0c0,0,0,0,0,0h0c0,0,0,0,0,0   h0c0.2,0,0.4,0,0.7,0c0,0,0,0,0,0c0.1,0,0.2,0,0.2,0c0.1,0,0.3,0,0.4-0.1c0,0,0,0,0,0c0.1,0,0.2,0,0.3-0.1c0.1,0,0.2-0.1,0.4-0.1   c0.1,0,0.2-0.1,0.3-0.1c0.1,0,0.2-0.1,0.3-0.1c0,0,0.1,0,0.1,0c0,0,0,0,0,0c0,0,0.1,0,0.1-0.1c0.1-0.1,0.2-0.1,0.3-0.2   c0,0,0.1,0,0.1-0.1c0.1,0,0.1-0.1,0.2-0.1c0.1-0.1,0.2-0.1,0.3-0.2c0,0,0.1,0,0.1-0.1c0.1,0,0.1-0.1,0.2-0.1   c0.1-0.1,0.2-0.1,0.2-0.2c0,0,0.1-0.1,0.1-0.1c0.1,0,0.1-0.1,0.2-0.1c0,0,0.1-0.1,0.1-0.1l22.3-21c2.8-2.6,3-7.1,0.3-9.9   c-2.7-2.8-7.1-3-9.9-0.3l-10.5,9.9v-45.8c0-29-23.6-52.7-52.7-52.7c-3.9,0-7,3.1-7,7S412.9,131.1,416.8,131.1z"/>
<path class="st0" d="M52.9,352.2c0,29,23.6,52.7,52.7,52.7c3.9,0,7-3.1,7-7s-3.1-7-7-7c-21.3,0-38.7-17.3-38.7-38.7v-45.8l10.5,9.9   c1.4,1.3,3.1,1.9,4.8,1.9c1.9,0,3.7-0.7,5.1-2.2c2.6-2.8,2.5-7.2-0.3-9.9l-22.3-21c0,0-0.1-0.1-0.1-0.1c-0.1-0.1-0.1-0.1-0.2-0.2   c-0.1,0-0.1-0.1-0.2-0.1c-0.1-0.1-0.1-0.1-0.2-0.2c-0.1,0-0.1-0.1-0.2-0.1c-0.1,0-0.1-0.1-0.2-0.1c-0.1-0.1-0.2-0.1-0.2-0.1   c-0.1,0-0.1-0.1-0.2-0.1c-0.1,0-0.1-0.1-0.2-0.1c-0.1,0-0.2-0.1-0.3-0.1c-0.1,0-0.1-0.1-0.2-0.1c-0.1,0-0.1-0.1-0.2-0.1   c-0.1,0-0.2-0.1-0.3-0.1c-0.1,0-0.1,0-0.2-0.1c-0.1,0-0.1,0-0.2-0.1c-0.1,0-0.2-0.1-0.3-0.1c-0.1,0-0.1,0-0.2,0c-0.1,0-0.1,0-0.2,0   c-0.1,0-0.2,0-0.3,0c-0.1,0-0.1,0-0.2,0c-0.1,0-0.1,0-0.2,0c-0.1,0-0.2,0-0.3,0c-0.1,0-0.2,0-0.2,0c0,0-0.1,0-0.1,0   c0,0-0.1,0-0.1,0c-0.1,0-0.2,0-0.2,0c-0.1,0-0.2,0-0.3,0c-0.1,0-0.1,0-0.2,0c-0.1,0-0.1,0-0.2,0c-0.1,0-0.2,0-0.3,0   c-0.1,0-0.1,0-0.2,0c-0.1,0-0.1,0-0.2,0c-0.1,0-0.2,0-0.3,0.1c-0.1,0-0.1,0-0.2,0.1c-0.1,0-0.1,0-0.2,0.1c-0.1,0-0.2,0.1-0.3,0.1   c-0.1,0-0.1,0-0.2,0.1c-0.1,0-0.1,0.1-0.2,0.1c-0.1,0-0.2,0.1-0.3,0.1c-0.1,0-0.1,0.1-0.2,0.1c-0.1,0-0.1,0.1-0.2,0.1   c-0.1,0-0.2,0.1-0.2,0.1c-0.1,0-0.1,0.1-0.2,0.1c-0.1,0-0.1,0.1-0.2,0.1c-0.1,0.1-0.1,0.1-0.2,0.2c-0.1,0-0.1,0.1-0.2,0.1   c-0.1,0.1-0.1,0.1-0.2,0.2c0,0-0.1,0.1-0.1,0.1l-22.3,21c-2.8,2.6-3,7.1-0.3,9.9c1.4,1.5,3.2,2.2,5.1,2.2c1.7,0,3.4-0.6,4.8-1.9   l10.5-9.9V352.2z"/>
</g>
</svg>