<?xml version="1.0" ?>
<!-- Uploaded to: SVG Repo, www.svgrepo.com, Generator: SVG Repo Mixer Tools -->
<svg width="800px" height="800px" viewBox="0 0 512 512" id="Layer_1" version="1.1" xml:space="preserve" xmlns="http://www.w3.org/2000/svg" xmlns:xlink="http://www.w3.org/1999/xlink">
<style type="text/css">
	.st0{fill:#333333;}
</style>
<g>
<path class="st0" d="M475,214.8c0-0.1,0-0.2,0-0.4c0-0.2-0.1-0.4-0.1-0.5c0-0.1,0-0.2-0.1-0.3c-0.1-0.2-0.1-0.4-0.2-0.6   c0-0.1-0.1-0.2-0.1-0.2c-0.1-0.3-0.2-0.5-0.4-0.8c0,0-0.1-0.1-0.1-0.1c-0.1-0.2-0.3-0.4-0.4-0.6c-0.1-0.1-0.1-0.2-0.2-0.2   c-0.1-0.1-0.2-0.3-0.4-0.4c-0.1-0.1-0.2-0.2-0.3-0.3c-0.1-0.1-0.2-0.2-0.3-0.3l-83.1-68c-19.1-37.6-53.1-65.4-93.6-76.5l-35.4-29   c-2.6-2.1-6.3-2.1-8.9,0l-35.4,28.9c-7.4,2-14.7,4.7-21.7,7.8c-31,14-56.5,38.4-71.9,68.8l-83.1,68c-0.1,0.1-0.2,0.2-0.3,0.3   c-0.1,0.1-0.2,0.2-0.3,0.2c-0.1,0.1-0.3,0.3-0.4,0.4c-0.1,0.1-0.1,0.1-0.2,0.2c-0.2,0.2-0.3,0.4-0.4,0.6c0,0,0,0.1-0.1,0.1   c-0.1,0.3-0.3,0.5-0.4,0.8c0,0.1-0.1,0.2-0.1,0.2c-0.1,0.2-0.1,0.4-0.2,0.6c0,0.1-0.1,0.2-0.1,0.3c0,0.2-0.1,0.4-0.1,0.5   c0,0.1,0,0.2,0,0.4c0,0.2,0,0.4,0,0.5c0,0.1,0,0.1,0,0.2v201c0,33.4,27.1,60.5,60.5,60.5h317.1c33.4,0,60.5-27.1,60.5-60.5v-201   c0-0.1,0-0.1,0-0.2C475,215.2,475,215,475,214.8z M455.9,214.6l-2.8,1.7l-52.4,31.5c0.1-0.3,0.1-0.5,0.2-0.8c0.3-1,0.5-2.1,0.8-3.1   c0.1-0.4,0.2-0.8,0.3-1.2c0.3-1.4,0.6-2.8,0.9-4.2c0-0.1,0-0.2,0.1-0.3c0.3-1.3,0.5-2.6,0.7-3.9c0.1-0.4,0.1-0.9,0.2-1.3   c0.2-1,0.3-2.1,0.5-3.1c0.1-0.4,0.1-0.8,0.2-1.3c0.2-1.4,0.3-2.9,0.5-4.3c0-0.1,0-0.1,0-0.2c0.1-1.4,0.2-2.8,0.3-4.2   c0-0.4,0.1-0.9,0.1-1.3c0.1-1.1,0.1-2.1,0.2-3.2c0-0.4,0-0.9,0-1.3c0-1.5,0.1-2.9,0.1-4.4c0-1.6,0-3.2-0.1-4.9c0-0.5,0-1-0.1-1.5   c0-1.1-0.1-2.2-0.2-3.3c0-0.6-0.1-1.2-0.1-1.8c-0.1-1.1-0.2-2.1-0.3-3.1c-0.1-0.6-0.1-1.1-0.2-1.7c-0.1-1.1-0.3-2.3-0.4-3.4   c-0.1-0.5-0.1-0.9-0.2-1.4c-0.2-1.6-0.5-3.2-0.7-4.7c0-0.2-0.1-0.4-0.1-0.6c-0.2-1.4-0.5-2.7-0.8-4.1c-0.1-0.5-0.2-1-0.3-1.6   c-0.2-1-0.5-2.1-0.7-3.1c-0.1-0.6-0.3-1.1-0.4-1.7c-0.3-1-0.5-2-0.8-3c-0.1-0.4-0.2-0.7-0.3-1.1L455.9,214.6z M256,51.1l11.7,9.6   c-7.7-0.6-15.6-0.6-23.4,0L256,51.1z M200.3,86.1c6.8-3,13.8-5.5,21-7.4c17-4.5,34.9-5.6,52.3-3.3c4.3,0.6,8.7,1.3,12.9,2.3   c1.4,0.3,2.8,0.7,4.2,1c0,0,0,0,0,0c0,0,0,0,0,0c37.8,10,69.4,35.9,86.8,71c9.3,18.8,14,39,14,60c0,1.1,0,2.2,0,3.2   c0,0.4,0,0.7,0,1c0,0.7,0,1.5-0.1,2.2c0,0.4,0,0.8-0.1,1.3c0,0.6-0.1,1.3-0.1,1.9c0,0.5-0.1,0.9-0.1,1.4c0,0.6-0.1,1.2-0.2,1.8   c0,0.5-0.1,0.9-0.1,1.4c-0.1,0.6-0.1,1.2-0.2,1.8c-0.1,0.5-0.1,1-0.2,1.4c-0.1,0.6-0.1,1.2-0.2,1.7c-0.1,0.5-0.1,1-0.2,1.4   c-0.1,0.6-0.2,1.1-0.3,1.7c-0.1,0.5-0.2,1-0.3,1.5c-0.1,0.6-0.2,1.1-0.3,1.7c-0.1,0.5-0.2,1-0.3,1.5c-0.1,0.6-0.2,1.1-0.3,1.7   c-0.1,0.5-0.2,1-0.3,1.5c-0.1,0.6-0.3,1.1-0.4,1.7c-0.1,0.5-0.2,1-0.4,1.4c-0.1,0.6-0.3,1.1-0.4,1.6c-0.1,0.5-0.3,1-0.4,1.4   c-0.2,0.5-0.3,1.1-0.5,1.6c-0.1,0.5-0.3,1-0.4,1.4c-0.2,0.5-0.3,1.1-0.5,1.6c-0.2,0.5-0.3,0.9-0.5,1.4c-0.2,0.5-0.4,1.1-0.6,1.6   c-0.2,0.5-0.3,0.9-0.5,1.4c-0.2,0.5-0.4,1.1-0.6,1.6c-0.2,0.5-0.3,0.9-0.5,1.4c-0.1,0.2-0.1,0.3-0.2,0.5L256,334.6l-126.4-75.8   c0-0.1-0.1-0.2-0.1-0.3c-0.2-0.4-0.3-0.9-0.5-1.3c-0.2-0.5-0.4-1-0.5-1.5c-0.2-0.4-0.3-0.9-0.5-1.3c-0.2-0.5-0.3-1-0.5-1.5   c-0.1-0.4-0.3-0.9-0.4-1.3c-0.2-0.5-0.3-1-0.5-1.5c-0.1-0.4-0.3-0.9-0.4-1.3c-0.1-0.5-0.3-1-0.4-1.5c-0.1-0.5-0.3-0.9-0.4-1.4   c-0.1-0.5-0.3-1-0.4-1.5c-0.1-0.5-0.2-0.9-0.4-1.4c-0.1-0.5-0.2-1-0.4-1.4c-0.1-0.5-0.2-0.9-0.3-1.4c-0.1-0.5-0.2-0.9-0.3-1.4   c-0.1-0.5-0.2-1-0.3-1.4c-0.1-0.5-0.2-0.9-0.3-1.4c-0.1-0.5-0.2-1-0.3-1.5c-0.1-0.5-0.2-0.9-0.2-1.4c-0.1-0.5-0.2-1-0.3-1.5   c-0.1-0.4-0.1-0.9-0.2-1.3c-0.1-0.5-0.2-1-0.2-1.6c-0.1-0.4-0.1-0.9-0.2-1.3c-0.1-0.5-0.1-1.1-0.2-1.6c-0.1-0.4-0.1-0.9-0.1-1.3   c-0.1-0.5-0.1-1.1-0.2-1.6c0-0.4-0.1-0.9-0.1-1.3c0-0.5-0.1-1.1-0.1-1.6c0-0.5-0.1-1-0.1-1.4c0-0.5-0.1-1-0.1-1.5   c0-0.8-0.1-1.6-0.1-2.3c0-0.2,0-0.4,0-0.6c-0.1-1.5-0.1-3.1-0.1-4.4c0-1.3,0-2.6,0.1-3.9c0.1-2.5,0.2-5.1,0.4-7.6   c0.1-1.6,0.3-3.1,0.5-4.7c1.8-15.2,6.2-29.9,13-43.8C148.3,121.6,171.7,99,200.3,86.1z M112.1,168.8c-0.1,0.3-0.2,0.7-0.3,1   c-0.3,1-0.5,2-0.8,3c-0.1,0.6-0.3,1.1-0.4,1.7c-0.3,1-0.5,2.1-0.7,3.1c-0.1,0.5-0.2,1-0.3,1.6c-0.3,1.3-0.5,2.6-0.8,4   c0,0.2-0.1,0.5-0.1,0.7c-0.3,1.6-0.5,3.1-0.7,4.7c-0.1,0.5-0.1,0.9-0.2,1.4c-0.1,1.1-0.3,2.2-0.4,3.4c-0.1,0.6-0.1,1.2-0.2,1.7   c-0.1,1-0.2,2.1-0.3,3.1c0,0.6-0.1,1.2-0.1,1.8c-0.1,1.1-0.1,2.2-0.2,3.3c0,0.5,0,1-0.1,1.5c-0.1,1.6-0.1,3.2-0.1,4.8   c0,1,0,2.2,0,3.5c0,0.5,0,1,0,1.5c0,0.1,0,0.1,0,0.2c0,1.2,0.1,2.4,0.2,3.6c0,0.4,0.1,0.8,0.1,1.2c0.1,0.9,0.1,1.8,0.2,2.6   c0,0.4,0.1,0.9,0.1,1.3c0.1,0.9,0.2,1.8,0.3,2.7c0,0.4,0.1,0.7,0.1,1.1c0.1,1.3,0.3,2.5,0.5,3.8c0,0.2,0.1,0.4,0.1,0.7   c0.2,1,0.3,2.1,0.5,3.1c0.1,0.4,0.1,0.8,0.2,1.3c0.2,0.9,0.3,1.7,0.5,2.6c0.1,0.4,0.2,0.9,0.3,1.3c0.2,0.9,0.4,1.9,0.6,2.8   c0.1,0.3,0.1,0.6,0.2,0.9c0.3,1.2,0.6,2.5,0.9,3.7c0,0.1,0,0.1,0,0.2l-55.2-33.1L112.1,168.8z M414.6,463H97.4   C71.8,463,51,442.1,51,416.5V227.9l39.1,23.5l30.3,18.2c0,0,0,0,0,0l132,79.2c1.1,0.7,2.4,1,3.6,1c1.2,0,2.5-0.3,3.6-1l188.5-113.1   l13-7.8v188.6C461,442.1,440.2,463,414.6,463z"/>
<path class="st0" d="M201.1,267.1c14,9.9,29.8,16.1,47.1,17.9v14.2c0,5.5,4.6,9.9,10.1,9.9c5.5,0,9.9-4.4,9.9-9.9v-13.8   c29.1-2.8,48.9-19.5,48.9-44.8c0-24.6-14.9-38.6-49.8-47.3v-44.1c7.8,1.8,15.6,5.3,23.6,10.1c2.3,1.4,4.6,2.1,6.9,2.1   c7.1,0,12.9-5.5,12.9-12.6c0-5.5-3.2-9-6.9-11c-10.6-6.7-22-11-35.6-12.6v-5.1c0-5.5-4.4-9.9-9.9-9.9c-5.5,0-10.1,4.4-10.1,9.9v4.8   c-28.7,2.3-48.2,19.3-48.2,43.8c0,25.9,15.6,38.6,49.1,47.3v45.2c-12.6-2.3-23.2-7.6-34-15.4c-2.1-1.6-4.8-2.5-7.6-2.5   c-7.1,0-12.6,5.5-12.6,12.6C194.9,260.9,197.2,264.6,201.1,267.1z M267.2,220.5c17.7,5.5,22.7,11.7,22.7,21.8c0,11-8,18.4-22.7,20   V220.5z M227.1,167.3c0-10.1,7.3-17.9,22-19.3v40.6C231.4,182.9,227.1,176.9,227.1,167.3z"/>
</g>
</svg>